<svg width="500" height="50" viewBox="0 0 32 32" fill="none" xmlns="http://www.w3.org/2000/svg">
<path fill-rule="evenodd" clip-rule="evenodd" d="M14.6219 8.22187L16.3285 6.5152C17.7024 5.13921 20.1152 4.18561 22.5109 3.84214C23.5731 3.67666 24.6533 3.6623 25.7195 3.79947C26.6645 3.94027 27.2427 4.21761 27.5115 4.48854C27.7824 4.75734 28.0597 5.33547 28.2005 6.28054C28.3371 7.19147 28.3264 8.30721 28.1579 9.48907C27.8165 11.8848 26.8608 14.2976 25.4848 15.6715L16 25.1584L13.5552 22.7136C13.4562 22.6144 13.3386 22.5357 13.2091 22.482C13.0797 22.4283 12.9409 22.4006 12.8008 22.4005C12.6606 22.4004 12.5218 22.4279 12.3923 22.4814C12.2628 22.535 12.145 22.6135 12.0459 22.7125C11.8456 22.9125 11.7329 23.1839 11.7327 23.467C11.7326 23.6071 11.7602 23.7459 11.8137 23.8755C11.8672 24.005 11.9458 24.1227 12.0448 24.2219L15.2448 27.4219C15.3439 27.5212 15.4616 27.6 15.5912 27.6538C15.7208 27.7076 15.8597 27.7352 16 27.7352C16.1403 27.7352 16.2792 27.7076 16.4088 27.6538C16.5384 27.6 16.6561 27.5212 16.7552 27.4219L17.9221 26.2528L20.4181 30.4149C20.5014 30.5543 20.6153 30.6728 20.7513 30.7615C20.8873 30.8502 21.0417 30.9066 21.2028 30.9266C21.3639 30.9465 21.5274 30.9295 21.6809 30.8767C21.8344 30.8239 21.9738 30.7367 22.0885 30.6219L26.3552 26.3552C26.4724 26.2379 26.5606 26.0948 26.6128 25.9374C26.665 25.78 26.6798 25.6126 26.656 25.4485L25.664 18.5109L26.9952 17.1819C28.8192 15.3557 29.8923 12.4352 30.2699 9.78987C30.4619 8.45227 30.4832 7.12321 30.3104 5.96267C30.1397 4.83627 29.7643 3.72267 29.0219 2.97814C28.2773 2.23574 27.1637 1.85814 26.0352 1.68961C24.7646 1.52234 23.4767 1.5367 22.2101 1.73227C19.5627 2.10561 16.64 3.17867 14.8181 5.00267L13.4891 6.33387L6.55147 5.34187C6.38736 5.31809 6.21997 5.33289 6.06258 5.3851C5.9052 5.43732 5.76215 5.52551 5.6448 5.64267L1.37814 9.90934C1.2633 10.0241 1.17616 10.1635 1.12335 10.317C1.07055 10.4705 1.05347 10.634 1.07343 10.7951C1.09339 10.9562 1.14985 11.1106 1.23851 11.2466C1.32718 11.3826 1.44571 11.4965 1.58507 11.5797L5.74507 14.0757L4.57814 15.2427C4.4788 15.3418 4.39999 15.4595 4.34622 15.5891C4.29244 15.7186 4.26476 15.8576 4.26476 15.9979C4.26476 16.1382 4.29244 16.2771 4.34622 16.4067C4.39999 16.5363 4.4788 16.654 4.57814 16.7531L7.77814 19.9531C7.87731 20.0522 7.99505 20.1309 8.12463 20.1846C8.2542 20.2383 8.39308 20.2659 8.53334 20.2659C8.67359 20.2659 8.81247 20.2383 8.94205 20.1846C9.07163 20.1309 9.18936 20.0522 9.28854 19.9531C9.38771 19.8539 9.46638 19.7362 9.52005 19.6066C9.57373 19.477 9.60135 19.3381 9.60135 19.1979C9.60135 19.0576 9.57373 18.9187 9.52005 18.7892C9.46638 18.6596 9.38771 18.5418 9.28854 18.4427L6.8416 16L8.22187 14.6219L14.6219 8.22187ZM21.5445 28.1472L19.4752 24.6976L23.7781 20.3968L24.4693 25.2224L21.5445 28.1472ZM7.3024 12.5227L11.6032 8.22187L6.7776 7.53067L3.85494 10.4533L7.3024 12.5227ZM5.01974 22.0885C5.11891 21.9895 5.19761 21.8719 5.25133 21.7425C5.30506 21.613 5.33276 21.4742 5.33286 21.3341C5.33296 21.1939 5.30546 21.0551 5.25191 20.9256C5.19837 20.7961 5.11984 20.6784 5.0208 20.5792C4.92177 20.48 4.80417 20.4013 4.67472 20.3476C4.54528 20.2939 4.40651 20.2662 4.26636 20.2661C4.1262 20.266 3.9874 20.2935 3.85788 20.347C3.72835 20.4006 3.61064 20.4791 3.51147 20.5781L1.37814 22.7115C1.17813 22.9118 1.06588 23.1833 1.06608 23.4664C1.06628 23.7494 1.17891 24.0208 1.3792 24.2208C1.5795 24.4208 1.85104 24.5331 2.13409 24.5329C2.41715 24.5327 2.68853 24.42 2.88854 24.2197L5.01974 22.0885ZM8.21974 25.2885C8.32161 25.1901 8.40288 25.0724 8.45878 24.9423C8.51468 24.8122 8.54411 24.6722 8.54534 24.5306C8.54657 24.3889 8.51958 24.2485 8.46595 24.1174C8.41231 23.9863 8.33311 23.8672 8.23296 23.767C8.13281 23.6669 8.01371 23.5877 7.88262 23.5341C7.75153 23.4804 7.61107 23.4534 7.46944 23.4547C7.32781 23.4559 7.18784 23.4853 7.05771 23.5412C6.92757 23.5971 6.80987 23.6784 6.71147 23.7803L2.4448 28.0469C2.2448 28.2472 2.13254 28.5188 2.13274 28.8018C2.13294 29.0849 2.24558 29.3563 2.44587 29.5563C2.64616 29.7563 2.9177 29.8685 3.20076 29.8683C3.48381 29.8681 3.7552 29.7555 3.9552 29.5552L8.21974 25.2885ZM11.4197 28.4885C11.5189 28.3895 11.5976 28.2719 11.6513 28.1425C11.7051 28.013 11.7328 27.8742 11.7329 27.7341C11.733 27.5939 11.7055 27.4551 11.6519 27.3256C11.5984 27.1961 11.5198 27.0784 11.4208 26.9792C11.3218 26.88 11.2042 26.8013 11.0747 26.7476C10.9453 26.6939 10.8065 26.6662 10.6664 26.6661C10.5262 26.666 10.3874 26.6935 10.2579 26.747C10.1284 26.8006 10.0106 26.8791 9.91147 26.9781L7.77814 29.1115C7.57813 29.3118 7.46588 29.5833 7.46608 29.8664C7.46628 30.1494 7.57891 30.4208 7.7792 30.6208C7.9795 30.8208 8.25104 30.9331 8.53409 30.9329C8.81715 30.9327 9.08853 30.82 9.28854 30.6197L11.4197 28.4885ZM20.2667 14.3979C20.6166 14.3979 20.9631 14.329 21.2863 14.195C21.6096 14.0611 21.9034 13.8649 22.1508 13.6174C22.3982 13.37 22.5945 13.0763 22.7284 12.753C22.8623 12.4297 22.9312 12.0832 22.9312 11.7333C22.9312 11.3834 22.8623 11.0369 22.7284 10.7137C22.5945 10.3904 22.3982 10.0967 22.1508 9.84923C21.9034 9.6018 21.6096 9.40554 21.2863 9.27163C20.9631 9.13773 20.6166 9.06881 20.2667 9.06881C19.56 9.06881 18.8823 9.34953 18.3826 9.84923C17.8829 10.3489 17.6021 11.0267 17.6021 11.7333C17.6021 12.44 17.8829 13.1178 18.3826 13.6174C18.8823 14.1171 19.56 14.3979 20.2667 14.3979Z" fill="#D4E667"/>
</svg>
